<?xml version="1.0" encoding="utf-8"?>
<!-- Generator: Adobe Illustrator 26.0.2, SVG Export Plug-In . SVG Version: 6.00 Build 0)  -->
<svg version="1.1" xmlns="http://www.w3.org/2000/svg" xmlns:xlink="http://www.w3.org/1999/xlink" x="0px" y="0px"
	 viewBox="0 0 1080 1080" style="enable-background:new 0 0 1080 1080;" xml:space="preserve">
<style type="text/css">
	.st0{fill:#00689C;}
	.st1{fill:#3E7E46;}
	.st2{fill:#FBC409;}
	.st3{fill:#FD9E23;}
	.st4{fill:#FE6925;}
	.st5{fill:#C4192D;}
	.st6{display:none;fill:#FE6925;}
	.st7{display:none;}
	.st8{display:inline;}
	.st9{clip-path:url(#SVGID_00000095333353807553680960000004057619250227195522_);}
	.st10{fill:#3C7D46;}
	.st11{clip-path:url(#SVGID_00000100377990535400292730000011840129392286852229_);fill:#04679B;}
	.st12{display:inline;fill:#FBC409;}
	.st13{clip-path:url(#SVGID_00000174570196309246375020000012606672367403424185_);}
	.st14{fill:#C3192C;}
	.st15{display:inline;fill:#C4192D;}
	.st16{clip-path:url(#SVGID_00000033336808407561719650000005972884226090045829_);fill:#00689C;}
	.st17{fill:#F8C12B;}
	.st18{fill:#FFFFFF;}
	.st19{display:inline;fill:#C3192C;}
	.st20{display:none;fill:#00689C;}
	.st21{display:inline;fill:#FE6925;}
	.st22{clip-path:url(#SVGID_00000008871749356446044460000012051816384037323145_);fill:#FAC31A;}
	.st23{display:inline;fill:#00689C;}
	.st24{fill:#FAC31A;}
	.st25{fill:#04679B;}
	.st26{fill:#26BDE2;}
</style>
<g id="startup">
</g>
<g id="startup_2_years">
</g>
<g id="web3">
</g>
<g id="Health_tech">
</g>
<g id="Green_startup">
	<g>
		<g>
			<g>
				<defs>
					<rect id="SVGID_00000173145847816043728870000017148293512735603388_" x="1104" y="-1109" width="1085" height="1090"/>
				</defs>
				<use xlink:href="#SVGID_00000173145847816043728870000017148293512735603388_"  style="overflow:visible;fill:#FD9E23;"/>
				<clipPath id="SVGID_00000173151383004470278350000006651777712127922818_">
					<use xlink:href="#SVGID_00000173145847816043728870000017148293512735603388_"  style="overflow:visible;"/>
				</clipPath>
				<g style="clip-path:url(#SVGID_00000173151383004470278350000006651777712127922818_);">
					<polygon class="st2" points="1064,-1157 1648,-1164 1648,0 1049,15 					"/>
				</g>
			</g>
		</g>
	</g>
</g>
<g id="E-commerce">
</g>
<g id="Ecosystem_Hero">
</g>
<g id="FOUNDER">
	<g>
		<rect x="-8" y="-7" class="st5" width="1096" height="1093"/>
		<g>
			<path class="st2" d="M721.5,580v0.59c0,0.01,0,0.01,0,0.01c0,0.9,0,0.9,0,0.9l-0.01,0.16c-0.25,33.32-8.1,64.82-21.89,92.88v0.01
				c-6.49,13.18-14.28,25.59-23.22,37.07L496.87,891.13l-0.09,0.1l-14.55,14.55l-0.1,0.09c-37.24,33.8-86.4,54.69-140.44,55.59
				c-1.23,0.03-2.46,0.04-3.69,0.04c-8.12,0-16.14-0.45-24.02-1.33c-10.41-1.16-20.59-3.06-30.49-5.66
				c-73.7-19.3-131.93-76.83-152.22-150.13c-5.07-18.26-7.77-37.5-7.77-57.38c0-0.96,0.01-1.92,0.02-2.87
				c0.67-51.39,19.41-98.4,50.15-135l178.78-178.78l-0.07,0.98l-6.58,90.52L240.05,627.6c-7.83,6.44-15.01,13.62-21.45,21.45
				c-21.92,26.68-35.1,60.8-35.1,97.95c0,1.7,0.03,3.39,0.08,5.07c2.47,76.24,60.45,138.7,134.75,148.19
				c5.96,0.75,12.03,1.17,18.18,1.23c0.49,0.01,0.99,0.01,1.49,0.01c39.94,0,76.38-15.23,103.83-40.18
				c3.66-3.33,7.16-6.83,10.49-10.49l56.34-56.34l43.8-43.8l46.92-46.92c2.3-1.72,4.54-3.5,6.73-5.33
				c9.18-7.7,17.47-16.45,24.66-26.06c9.68-12.93,17.38-27.43,22.65-43.04c5.24-15.5,8.08-32.09,8.08-49.34
				c0-1.16-0.01-2.31-0.04-3.46c-1.82-82.56-68.73-149.36-151.34-151.01l51.15-51.15l1.54-1.54
				c73.52,19.74,131.43,77.59,151.28,151.07l-0.6,0.6c0.27,0.07,0.54,0.15,0.82,0.22C719,542.36,721.5,560.89,721.5,580z"/>
			<path class="st3" d="M982.5,317c0,1.23-0.01,2.46-0.04,3.69c-0.9,54.04-21.79,103.2-55.59,140.44l-0.09,0.1l-14.55,14.55
				l-0.1,0.09L759.87,628.13l-0.09,0.1l-13.01,13l6.65-91.5l18.27-18.27l43.77-43.77l56.37-56.37c3.66-3.33,7.16-6.83,10.49-10.49
				c24.95-27.45,40.18-63.89,40.18-103.83c0-0.5,0-1-0.01-1.49c-0.76-79.98-62.59-145.61-141-152.43c-2.79-0.24-5.59-0.41-8.42-0.5
				c-1.68-0.05-3.37-0.08-5.07-0.08c-37.15,0-71.27,13.18-97.95,35.1c-7.83,6.44-15.01,13.62-21.45,21.45l-50.47,50.47l-44.61,44.61
				l-50.47,50.47c-0.39,0.32-0.78,0.64-1.16,0.96c-7.38,6.19-14.17,13.05-20.29,20.49c-11.74,14.29-20.98,30.72-27.02,48.61
				c-5.24,15.5-8.08,32.09-8.08,49.34c0,1.7,0.03,3.39,0.08,5.07c2.67,82.36,70.12,148.63,152.93,149.42l-53.02,53.02
				c-0.45-0.11-0.89-0.23-1.33-0.35c-73.07-19.65-130.72-76.92-150.89-149.78l1.11-1.11c-0.51-0.15-1.03-0.29-1.54-0.43
				c-4.79-17.8-7.34-36.52-7.34-55.84v-0.6c0-0.76,0.01-1.52,0.02-2.27c0.43-32.88,8.26-63.96,21.88-91.68h0.01
				c7.67-15.6,17.18-30.14,28.26-43.32l193.46-193.46c36.6-30.74,83.61-49.48,135-50.15c0.95-0.01,1.91-0.02,2.87-0.02
				c6,0,11.95,0.25,17.83,0.74c13.58,1.11,26.81,3.49,39.55,7.03c73.3,20.29,130.83,78.52,150.13,152.22
				C980.07,279.89,982.5,298.16,982.5,317z"/>
		</g>
	</g>
</g>
<g id="INVESTOR">
</g>
<g id="Diversity_Rolez">
</g>
<g id="SOCIAL_IMPACT">
</g>
<g id="ACCELERATOR">
</g>
<g id="INCUBATORz">
</g>
<g id="START-UP_CONTEST">
</g>
<g id="CO-WORKING">
</g>
<g id="simple">
</g>
<g id="icon_trắng">
</g>
</svg>
