<?xml version="1.0" encoding="utf-8"?>
<!-- Generator: Adobe Illustrator 26.0.2, SVG Export Plug-In . SVG Version: 6.00 Build 0)  -->
<svg version="1.1" xmlns="http://www.w3.org/2000/svg" xmlns:xlink="http://www.w3.org/1999/xlink" x="0px" y="0px"
	 viewBox="0 0 1080 1080" style="enable-background:new 0 0 1080 1080;" xml:space="preserve">
<style type="text/css">
	.st0{fill:#00689C;}
	.st1{fill:#3E7E46;}
	.st2{fill:#FBC409;}
	.st3{fill:#FD9E23;}
	.st4{fill:#FE6925;}
	.st5{fill:#C4192D;}
	.st6{display:none;fill:#FE6925;}
	.st7{display:none;}
	.st8{display:inline;}
	.st9{clip-path:url(#SVGID_00000070088077482591172750000014633311532573547398_);}
	.st10{fill:#3C7D46;}
	.st11{clip-path:url(#SVGID_00000149362754302479567820000015318054678987035787_);fill:#04679B;}
	.st12{display:inline;fill:#FBC409;}
	.st13{clip-path:url(#SVGID_00000088836672944260628160000016400327775903397561_);}
	.st14{fill:#C3192C;}
	.st15{display:inline;fill:#C4192D;}
	.st16{clip-path:url(#SVGID_00000095311244865000808600000009360559215479175598_);fill:#00689C;}
	.st17{fill:#F8C12B;}
	.st18{fill:#FFFFFF;}
	.st19{display:inline;fill:#C3192C;}
	.st20{display:none;fill:#00689C;}
	.st21{display:inline;fill:#FE6925;}
	.st22{clip-path:url(#SVGID_00000164509273901482977650000008933578413180312200_);fill:#FAC31A;}
	.st23{display:inline;fill:#00689C;}
	.st24{fill:#FAC31A;}
	.st25{fill:#04679B;}
	.st26{fill:#26BDE2;}
</style>
<g id="startup">
</g>
<g id="startup_2_years">
</g>
<g id="web3">
</g>
<g id="Health_tech">
</g>
<g id="Green_startup">
	<g>
		<g>
			<g>
				<defs>
					<rect id="SVGID_00000173145847816043728870000017148293512735603388_" x="-2" y="-1109" width="1085" height="1090"/>
				</defs>
				<use xlink:href="#SVGID_00000173145847816043728870000017148293512735603388_"  style="overflow:visible;fill:#FD9E23;"/>
				<clipPath id="SVGID_00000180342568546040445140000004183185390595261066_">
					<use xlink:href="#SVGID_00000173145847816043728870000017148293512735603388_"  style="overflow:visible;"/>
				</clipPath>
				<g style="clip-path:url(#SVGID_00000180342568546040445140000004183185390595261066_);">
					<polygon class="st2" points="-42,-1157 542,-1164 542,0 -57,15 					"/>
				</g>
			</g>
		</g>
	</g>
</g>
<g id="E-commerce">
</g>
<g id="Ecosystem_Hero">
</g>
<g id="FOUNDER">
</g>
<g id="INVESTOR">
	<g>
		<rect x="-5" y="-7" class="st3" width="1091" height="1088"/>
		<g>
			<path class="st5" d="M203.99,976.7L203.99,976.7c-4.46,0-8.11-3.65-8.11-8.11V647.23c0-4.46,3.65-8.11,8.11-8.11h0
				c4.46,0,8.11,3.65,8.11,8.11v321.36C212.09,973.05,208.44,976.7,203.99,976.7z"/>
			<path class="st5" d="M429.67,835.57L429.67,835.57c-4.46,0-8.11-3.65-8.11-8.11V290.59c0-4.46,3.65-8.11,8.11-8.11h0
				c4.46,0,8.11,3.65,8.11,8.11v536.87C437.78,831.92,434.13,835.57,429.67,835.57z"/>
			<path class="st5" d="M655.35,931.88L655.35,931.88c-4.46,0-8.11-3.65-8.11-8.11V450.79c0-4.46,3.65-8.11,8.11-8.11l0,0
				c4.46,0,8.11,3.65,8.11,8.11v472.98C663.46,928.23,659.81,931.88,655.35,931.88z"/>
			<path class="st5" d="M881.51,650.57L881.51,650.57c-4.46,0-8.11-3.65-8.11-8.11V109.41c0-4.46,3.65-8.11,8.11-8.11l0,0
				c4.46,0,8.11,3.65,8.11,8.11v533.06C889.62,646.92,885.97,650.57,881.51,650.57z"/>
			<path class="st0" d="M274.47,934.74H133.5c-6.6,0-12-5.4-12-12V693.09c0-6.6,5.4-12,12-12h140.97c6.6,0,12,5.4,12,12v229.66
				C286.47,929.34,281.07,934.74,274.47,934.74z"/>
			<path class="st0" d="M500.16,793.61H359.18c-6.6,0-12-5.4-12-12V327.86c0-6.6,5.4-12,12-12h140.97c6.6,0,12,5.4,12,12v453.75
				C512.16,788.21,506.76,793.61,500.16,793.61z"/>
			<path class="st14" d="M725.84,887.06H584.87c-6.6,0-12-5.4-12-12V492.83c0-6.6,5.4-12,12-12h140.97c6.6,0,12,5.4,12,12v382.23
				C737.84,881.66,732.44,887.06,725.84,887.06z"/>
			<path class="st0" d="M952,604.8H811.03c-6.6,0-12-5.4-12-12V149.54c0-6.6,5.4-12,12-12H952c6.6,0,12,5.4,12,12V592.8
				C964,599.4,958.6,604.8,952,604.8z"/>
		</g>
	</g>
</g>
<g id="Diversity_Rolez">
</g>
<g id="SOCIAL_IMPACT">
</g>
<g id="ACCELERATOR">
</g>
<g id="INCUBATORz">
</g>
<g id="START-UP_CONTEST">
</g>
<g id="CO-WORKING">
</g>
<g id="simple">
</g>
<g id="icon_trắng">
</g>
</svg>
