<?xml version="1.0" encoding="utf-8"?>
<!-- Generator: Adobe Illustrator 26.0.2, SVG Export Plug-In . SVG Version: 6.00 Build 0)  -->
<svg version="1.1" xmlns="http://www.w3.org/2000/svg" xmlns:xlink="http://www.w3.org/1999/xlink" x="0px" y="0px"
	 viewBox="0 0 1080 1080" style="enable-background:new 0 0 1080 1080;" xml:space="preserve">
<style type="text/css">
	.st0{fill:#00689C;}
	.st1{fill:#3E7E46;}
	.st2{fill:#FBC409;}
	.st3{fill:#FD9E23;}
	.st4{fill:#FE6925;}
	.st5{fill:#C4192D;}
	.st6{display:none;fill:#FE6925;}
	.st7{display:none;}
	.st8{display:inline;}
	.st9{clip-path:url(#SVGID_00000097472115170184489670000016638046690720479650_);}
	.st10{fill:#3C7D46;}
	.st11{clip-path:url(#SVGID_00000012453126552866993990000003918936330523583135_);fill:#04679B;}
	.st12{display:inline;fill:#FBC409;}
	.st13{clip-path:url(#SVGID_00000062186352805564011280000018429963277891161986_);}
	.st14{fill:#C3192C;}
	.st15{display:inline;fill:#C4192D;}
	.st16{clip-path:url(#SVGID_00000100381106630352656150000011304953449311009935_);fill:#00689C;}
	.st17{fill:#F8C12B;}
	.st18{fill:#FFFFFF;}
	.st19{display:inline;fill:#C3192C;}
	.st20{display:none;fill:#00689C;}
	.st21{display:inline;fill:#FE6925;}
	.st22{clip-path:url(#SVGID_00000177481537951433283280000009978219556767374739_);fill:#FAC31A;}
	.st23{display:inline;fill:#00689C;}
	.st24{fill:#FAC31A;}
	.st25{fill:#04679B;}
	.st26{fill:#26BDE2;}
</style>
<g id="startup">
</g>
<g id="startup_2_years">
</g>
<g id="web3">
</g>
<g id="Health_tech">
</g>
<g id="Green_startup">
	<g>
		<g>
			<g>
				<defs>
					<rect id="SVGID_1_" x="-2" y="-3" width="1085" height="1090"/>
				</defs>
				<clipPath id="SVGID_00000098218324919193273270000003525030617141549243_">
					<use xlink:href="#SVGID_1_"  style="overflow:visible;"/>
				</clipPath>
			</g>
			<g>
				<defs>
					<rect id="SVGID_00000173145847816043728870000017148293512735603388_" x="-2" y="-3" width="1085" height="1090"/>
				</defs>
				<use xlink:href="#SVGID_00000173145847816043728870000017148293512735603388_"  style="overflow:visible;fill:#FD9E23;"/>
				<clipPath id="SVGID_00000088844507316809098330000006349435230827104937_">
					<use xlink:href="#SVGID_00000173145847816043728870000017148293512735603388_"  style="overflow:visible;"/>
				</clipPath>
				<g style="clip-path:url(#SVGID_00000088844507316809098330000006349435230827104937_);">
					<polygon class="st2" points="-42,-51 542,-58 542,1106 -57,1121 					"/>
				</g>
			</g>
			<g>
				<defs>
					<rect id="SVGID_00000155123661944585606590000017356374988578750361_" x="-2" y="-3" width="1085" height="1090"/>
				</defs>
				<clipPath id="SVGID_00000031904671941924401410000004240796798714874014_">
					<use xlink:href="#SVGID_00000155123661944585606590000017356374988578750361_"  style="overflow:visible;"/>
				</clipPath>
			</g>
		</g>
		<path class="st10" d="M844.03,197.62l-92.64-50.46l-25.71-14.01l-73.97-40.3l-12.99-7.08l-96.67-52.66l-95.79,52.66l-111.67,61.39
			l-85.29,46.89l-73.97,40.28v475.4l73.97,42.33l23.49,13.43l65.15,37.29l143.56,82.14l26.69,15.27l2.96,1.69V1041h71.01V663.05
			l2.96-1.69l26.69-15.26l39.89-22.82l73.97-42.32l118.36-67.73v164.29l-88.65,50.72l-29.71,16.99l-35.45,20.28l-38.52,22.05v74.55
			l73.97-42.32l29.71-16.99l65.15-37.29l23.49-13.43L918,709.74V237.93L844.03,197.62z M249.29,274.45l258.9,144.6l2.96,1.66v167.79
			l-2.96-1.69l-258.9-148.13V274.45z M403.1,765.51l-65.15-37.28l-88.65-50.72V513.22l232.21,132.87l26.69,15.26l2.96,1.69v164.29
			l-2.96-1.69L403.1,765.51z M545.18,365.71l-34.03-19.01l-2.96-1.65L309.95,234.33l158.57-87.17l42.64-23.44l31.07-17.08
			l39.94,21.76l34.43,18.76l35.11,19.13l73.97,40.3l57.7,31.43l-57.7,30.93L651.7,308.6l-66.57,35.69l-2.96,1.58L545.18,365.71z
			 M844.03,438.67l-118.36,67.71L651.7,548.7l-66.57,38.1l-2.96,1.69V418.97l2.96-1.58l66.57-35.69l73.97-39.66l118.36-63.45V438.67
			z"/>
	</g>
</g>
<g id="E-commerce">
	<g>
		<g>
			<defs>
				<rect id="SVGID_00000104664195889753135470000015780565503838268572_" x="1095" y="-3" width="1095" height="1092"/>
			</defs>
			<use xlink:href="#SVGID_00000104664195889753135470000015780565503838268572_"  style="overflow:visible;fill:#FAC31A;"/>
			<clipPath id="SVGID_00000127746965216261008450000002500280118470628499_">
				<use xlink:href="#SVGID_00000104664195889753135470000015780565503838268572_"  style="overflow:visible;"/>
			</clipPath>
			
				<rect x="651" y="-676" style="clip-path:url(#SVGID_00000127746965216261008450000002500280118470628499_);fill:#04679B;" width="1014" height="1262"/>
		</g>
	</g>
</g>
<g id="Ecosystem_Hero">
</g>
<g id="FOUNDER">
</g>
<g id="INVESTOR">
</g>
<g id="Diversity_Rolez">
</g>
<g id="SOCIAL_IMPACT">
</g>
<g id="ACCELERATOR">
</g>
<g id="INCUBATORz">
</g>
<g id="START-UP_CONTEST">
</g>
<g id="CO-WORKING">
</g>
<g id="simple">
</g>
<g id="icon_trắng">
</g>
</svg>
