<?xml version="1.0" encoding="utf-8"?>
<!-- Generator: Adobe Illustrator 26.0.2, SVG Export Plug-In . SVG Version: 6.00 Build 0)  -->
<svg version="1.1" xmlns="http://www.w3.org/2000/svg" xmlns:xlink="http://www.w3.org/1999/xlink" x="0px" y="0px"
	 viewBox="0 0 1080 1080" style="enable-background:new 0 0 1080 1080;" xml:space="preserve">
<style type="text/css">
	.st0{fill:#00689C;}
	.st1{fill:#3E7E46;}
	.st2{fill:#FBC409;}
	.st3{fill:#FD9E23;}
	.st4{fill:#FE6925;}
	.st5{fill:#C4192D;}
	.st6{display:none;fill:#FE6925;}
	.st7{display:none;}
	.st8{display:inline;}
	.st9{clip-path:url(#SVGID_00000056424965673063194100000015159329128962874033_);}
	.st10{fill:#3C7D46;}
	.st11{clip-path:url(#SVGID_00000168095442230187655950000001759868842153116316_);fill:#04679B;}
	.st12{display:inline;fill:#FBC409;}
	.st13{clip-path:url(#SVGID_00000038415191858462000120000000952149832322939788_);}
	.st14{fill:#C3192C;}
	.st15{display:inline;fill:#C4192D;}
	.st16{clip-path:url(#SVGID_00000143607923364495432630000012272327401120682141_);fill:#00689C;}
	.st17{fill:#F8C12B;}
	.st18{fill:#FFFFFF;}
	.st19{display:inline;fill:#C3192C;}
	.st20{display:none;fill:#00689C;}
	.st21{display:inline;fill:#FE6925;}
	.st22{clip-path:url(#SVGID_00000170239383832698284890000009756186739596171926_);fill:#FAC31A;}
	.st23{display:inline;fill:#00689C;}
	.st24{fill:#FAC31A;}
	.st25{fill:#04679B;}
	.st26{fill:#26BDE2;}
</style>
<g id="startup">
</g>
<g id="startup_2_years">
</g>
<g id="web3">
</g>
<g id="Health_tech">
</g>
<g id="Green_startup">
</g>
<g id="E-commerce">
</g>
<g id="Ecosystem_Hero">
	<g class="st7">
		
			<ellipse transform="matrix(0.7071 -0.7071 0.7071 0.7071 -66.7049 280.4298)" class="st12" cx="305.16" cy="220.73" rx="23.22" ry="32.06"/>
		
			<ellipse transform="matrix(0.7071 -0.7071 0.7071 0.7071 72.3548 613.9382)" class="st12" cx="777.27" cy="219.63" rx="32.06" ry="23.22"/>
		<ellipse class="st12" cx="543.98" cy="112.93" rx="23.22" ry="32.06"/>
		<ellipse class="st12" cx="866.82" cy="452.92" rx="32.06" ry="23.22"/>
		<ellipse class="st12" cx="211.18" cy="452.92" rx="32.06" ry="23.22"/>
		<path class="st12" d="M543.98,281.55c-54.34,0-98.4,54.2-98.4,121.07s44.06,121.07,98.4,121.07s98.4-54.2,98.4-121.07
			S598.32,281.55,543.98,281.55z M543.98,468.4c-20.4,0-43.12-27.02-43.12-65.79s22.72-65.79,43.12-65.79
			c20.4,0,43.12,27.02,43.12,65.79S564.37,468.4,543.98,468.4z"/>
		<path class="st12" d="M921,861.46c0,0.03,0,0.06,0,0.09c0,5.15-4.23,9.3-9.38,9.3H749.13c-18.4,0-30.69-18.96-23.18-35.75
			l8.73-19.53l14.01-31.32c5.01-11.21,16.15-18.43,28.43-18.43h10.46c14.06,0,23.45,14.48,17.71,27.32l-10.03,22.44h62.66
			c-5.95-17.23-15.2-33.92-27.55-49.75c-2.65-3.39-5.44-6.73-8.37-10.04c-12.1-13.67-26.59-26.59-43.34-38.52
			c-0.45-0.33-0.92-0.66-1.37-0.98c-2.76-1.95-5.58-3.87-8.44-5.74c-28.28-18.57-60.84-33.4-96.93-44.17
			c-30.83-9.19-63.13-15.05-96.42-17.5c-12.04-0.9-24.2-1.35-36.48-1.35c-7.96,0-15.88,0.19-23.74,0.57
			c-37.8,1.79-74.42,7.93-109.16,18.28c-36.09,10.77-68.65,25.6-96.93,44.17c-2.85,1.87-5.67,3.79-8.44,5.74
			c-0.97,0.69-1.95,1.37-2.9,2.07c-16.72,12.07-31.15,25.14-43.14,38.95c-2.45,2.81-4.8,5.65-7.04,8.52
			c-12.35,15.83-21.6,32.53-27.55,49.75h60.66l-10.12-22.63c-5.7-12.74,3.63-27.12,17.58-27.12h15.1c9.58,0,18.27,5.63,22.18,14.38
			l15.82,35.38l10.43,23.33c6.71,15.01-4.27,31.95-20.71,31.95H166.38c-5.15,0-9.38-4.15-9.38-9.3c0-0.03,0-0.06,0-0.09
			c0-15.64,1.89-30.98,5.54-45.88c4.18-17.2,10.68-33.84,19.26-49.75c10.59-19.64,24.35-38.17,40.83-55.28
			c2.5-2.61,5.08-5.19,7.71-7.73c13.33-12.86,28.24-24.85,44.54-35.83c44.66-30.14,99.67-52.72,160.92-64.79
			c32.83-6.49,67.44-9.95,103.21-9.95h1.23c20.09,0.04,39.81,1.18,59.06,3.35c14.59,1.61,28.92,3.84,42.92,6.6
			c60.53,11.94,115,34.13,159.38,63.75c16.32,10.89,31.28,22.78,44.67,35.54c3.13,2.97,6.17,5.99,9.11,9.07
			c16.49,17.12,30.24,35.65,40.83,55.28c8.58,15.91,15.08,32.55,19.26,49.75C919.11,830.48,921,845.81,921,861.46z"/>
		<path class="st12" d="M539.55,676.26c-84.88,0-153.68,68.8-153.68,153.68s68.8,153.68,153.68,153.68s153.68-68.8,153.68-153.68
			S624.43,676.26,539.55,676.26z M541.21,731.35c0.03,0.07,0.07,0.13,0.1,0.21c2.45,4.9,5.15,11.41,7.75,19.87
			c6.7,21.8,10.39,49.3,10.39,77.41c0,28.11-3.69,55.6-10.39,77.41c-2.63,8.58-5.37,15.16-7.85,20.08
			c-2.48-4.92-5.22-11.5-7.85-20.08c-6.7-21.8-10.39-49.3-10.39-77.41c0-28.11,3.69-55.6,10.39-77.41c2.6-8.46,5.3-14.97,7.75-19.87
			C541.14,731.49,541.18,731.42,541.21,731.35z M441.15,829.94c0-35.81,19.22-67.21,47.89-84.42
			c-6.51,23.89-10.29,52.53-10.29,83.31c0,31.92,4.07,61.54,11.03,85.96C460.7,897.69,441.15,866.05,441.15,829.94z M593.34,912.3
			c6.53-23.93,10.34-52.62,10.34-83.47c0-29.7-3.53-57.4-9.62-80.78c26.45,17.65,43.89,47.76,43.89,81.88
			C637.96,864.37,620.19,894.72,593.34,912.3z"/>
	</g>
	<g>
		<g>
			<g>
				<defs>
					<rect id="SVGID_00000079462470334572291420000003901210999380661924_" x="-10" y="-9" width="1100" height="1097"/>
				</defs>
				<clipPath id="SVGID_00000108274598906366764780000014235077028535946650_">
					<use xlink:href="#SVGID_00000079462470334572291420000003901210999380661924_"  style="overflow:visible;"/>
				</clipPath>
			</g>
			<g>
				<defs>
					<rect id="SVGID_00000181089338033647162740000017261246177791816587_" x="-10" y="-9" width="1100" height="1097"/>
				</defs>
				<use xlink:href="#SVGID_00000181089338033647162740000017261246177791816587_"  style="overflow:visible;fill:#C4192D;"/>
				<clipPath id="SVGID_00000173841286934700805530000006660481410913138834_">
					<use xlink:href="#SVGID_00000181089338033647162740000017261246177791816587_"  style="overflow:visible;"/>
				</clipPath>
				<g style="clip-path:url(#SVGID_00000173841286934700805530000006660481410913138834_);">
					<path class="st1" d="M1433.54,648H876.46C652.53,648,471,466.47,471,242.54v-557.09C471-538.47,652.53-720,876.46-720h557.09
						C1657.47-720,1839-538.47,1839-314.54v557.09C1839,466.47,1657.47,648,1433.54,648z"/>
				</g>
			</g>
			<g>
				<defs>
					<rect id="SVGID_00000181810126739275969240000003171671074922281902_" x="-10" y="-9" width="1100" height="1097"/>
				</defs>
				<clipPath id="SVGID_00000100345286149054124000000011515207143648188598_">
					<use xlink:href="#SVGID_00000181810126739275969240000003171671074922281902_"  style="overflow:visible;"/>
				</clipPath>
			</g>
		</g>
		<path class="st3" d="M928.96,627.32c0,61.52-49.87,111.39-111.39,111.39c-15.89,0-31-3.32-44.67-9.33v186.3
			c0,7.46-6.11,13.57-13.57,13.57H558.21c15.13-19.01,24.15-43.08,24.15-69.26c0-61.52-49.87-111.39-111.39-111.39
			s-111.39,49.87-111.39,111.39c0,26.18,9.02,50.25,24.15,69.26H182.61c-7.46,0-13.57-6.11-13.57-13.57V720.1
			c17.65,11.75,38.83,18.6,61.63,18.6c61.52,0,111.39-49.87,111.39-111.39s-49.87-111.39-111.39-111.39
			c-22.8,0-43.98,6.85-61.63,18.6V338.96c0-7.46,6.11-13.57,13.57-13.57H382c-14.08-18.65-22.41-41.85-22.41-67
			c0-61.52,49.87-111.39,111.39-111.39s111.39,49.87,111.39,111.39c0,25.15-8.33,48.35-22.41,67h199.39
			c7.46,0,13.57,6.11,13.57,13.57v186.3c13.67-6,28.78-9.33,44.67-9.33C879.09,515.93,928.96,565.8,928.96,627.32z"/>
	</g>
</g>
<g id="FOUNDER">
</g>
<g id="INVESTOR">
</g>
<g id="Diversity_Rolez">
</g>
<g id="SOCIAL_IMPACT">
</g>
<g id="ACCELERATOR">
</g>
<g id="INCUBATORz">
</g>
<g id="START-UP_CONTEST">
</g>
<g id="CO-WORKING">
</g>
<g id="simple">
</g>
<g id="icon_trắng">
</g>
</svg>
