<?xml version="1.0" encoding="utf-8"?>
<!-- Generator: Adobe Illustrator 26.0.2, SVG Export Plug-In . SVG Version: 6.00 Build 0)  -->
<svg version="1.1" xmlns="http://www.w3.org/2000/svg" xmlns:xlink="http://www.w3.org/1999/xlink" x="0px" y="0px"
	 viewBox="0 0 1080 1080" style="enable-background:new 0 0 1080 1080;" xml:space="preserve">
<style type="text/css">
	.st0{fill:#00689C;}
	.st1{fill:#3E7E46;}
	.st2{fill:#FBC409;}
	.st3{fill:#FD9E23;}
	.st4{fill:#FE6925;}
	.st5{fill:#C4192D;}
	.st6{display:none;fill:#FE6925;}
	.st7{display:none;}
	.st8{display:inline;}
	.st9{clip-path:url(#SVGID_00000003812562847747303880000006294165170087841937_);}
	.st10{fill:#3C7D46;}
	.st11{clip-path:url(#SVGID_00000159453146603172167750000014872156234934588053_);fill:#04679B;}
	.st12{display:inline;fill:#FBC409;}
	.st13{clip-path:url(#SVGID_00000017510076831693403120000017504540037841460619_);}
	.st14{fill:#C3192C;}
	.st15{display:inline;fill:#C4192D;}
	.st16{clip-path:url(#SVGID_00000119797151938307020070000014472225798314942895_);fill:#00689C;}
	.st17{fill:#F8C12B;}
	.st18{fill:#FFFFFF;}
	.st19{display:inline;fill:#C3192C;}
	.st20{display:none;fill:#00689C;}
	.st21{display:inline;fill:#FE6925;}
	.st22{clip-path:url(#SVGID_00000136407581129646652400000002580474771604238721_);fill:#FAC31A;}
	.st23{display:inline;fill:#00689C;}
	.st24{fill:#FAC31A;}
	.st25{fill:#04679B;}
	.st26{fill:#26BDE2;}
</style>
<g id="startup">
</g>
<g id="startup_2_years">
</g>
<g id="web3">
</g>
<g id="Health_tech">
</g>
<g id="Green_startup">
</g>
<g id="E-commerce">
</g>
<g id="Ecosystem_Hero">
</g>
<g id="FOUNDER">
</g>
<g id="INVESTOR">
</g>
<g id="Diversity_Rolez">
	<g>
		<g>
			<defs>
				<rect id="SVGID_00000057116331814659646950000016362019649711035297_" x="-1125" y="-15" width="1112" height="1107"/>
			</defs>
			<use xlink:href="#SVGID_00000057116331814659646950000016362019649711035297_"  style="overflow:visible;fill:#F9C224;"/>
			<clipPath id="SVGID_00000023983540266546648960000017865815638593953696_">
				<use xlink:href="#SVGID_00000057116331814659646950000016362019649711035297_"  style="overflow:visible;"/>
			</clipPath>
			<polyline style="clip-path:url(#SVGID_00000023983540266546648960000017865815638593953696_);fill:#00689C;" points="72,547 
				-1132,547 -1127,1153 312,1153 72,547 			"/>
		</g>
	</g>
</g>
<g id="SOCIAL_IMPACT">
	<path class="st18" d="M651,542c0,29.92-11.65,58.04-32.8,79.2C597.04,642.35,568.92,654,539,654s-58.04-11.65-79.2-32.8
		C438.65,600.04,427,571.92,427,542s11.65-58.04,32.8-79.2c21.16-21.15,49.28-32.8,79.2-32.8s58.04,11.65,79.2,32.8
		C639.35,483.96,651,512.08,651,542z"/>
	<path class="st18" d="M651,542c0,29.92-11.65,58.04-32.8,79.2C597.04,642.35,568.92,654,539,654s-58.04-11.65-79.2-32.8
		C438.65,600.04,427,571.92,427,542s11.65-58.04,32.8-79.2c21.16-21.15,49.28-32.8,79.2-32.8s58.04,11.65,79.2,32.8
		C639.35,483.96,651,512.08,651,542z"/>
	<path class="st18" d="M651,542c0,29.92-11.65,58.04-32.8,79.2C597.04,642.35,568.92,654,539,654s-58.04-11.65-79.2-32.8
		C438.65,600.04,427,571.92,427,542s11.65-58.04,32.8-79.2c21.16-21.15,49.28-32.8,79.2-32.8s58.04,11.65,79.2,32.8
		C639.35,483.96,651,512.08,651,542z"/>
	<path class="st18" d="M651,542c0,29.92-11.65,58.04-32.8,79.2C597.04,642.35,568.92,654,539,654s-58.04-11.65-79.2-32.8
		C438.65,600.04,427,571.92,427,542s11.65-58.04,32.8-79.2c21.16-21.15,49.28-32.8,79.2-32.8s58.04,11.65,79.2,32.8
		C639.35,483.96,651,512.08,651,542z"/>
	<g>
		<rect x="-3" y="-6" class="st5" width="1091" height="1089"/>
		<g>
			<path class="st3" d="M539,110c-238.59,0-432,193.41-432,432c0,238.59,193.41,432,432,432s432-193.41,432-432
				C971,303.41,777.59,110,539,110z M731.33,734.33C679.96,785.71,611.65,814,539,814s-140.96-28.29-192.33-79.67
				C295.29,682.96,267,614.65,267,542s28.29-140.96,79.67-192.33C398.04,298.29,466.35,270,539,270s140.96,28.29,192.33,79.67
				C782.71,401.04,811,469.35,811,542S782.71,682.96,731.33,734.33z"/>
			<path class="st5" d="M539,574c-8.67,0-16.5-3.24-22.63-9.37C510.24,558.5,507,550.67,507,542c0-8.67,3.24-16.5,9.37-22.63
				c6.13-6.13,13.96-9.37,22.63-9.37c8.67,0,16.5,3.24,22.63,9.37c6.13,6.13,9.37,13.96,9.37,22.63s-3.24,16.5-9.37,22.63
				C555.5,570.76,547.67,574,539,574z"/>
			<path class="st5" d="M651,542c0,29.92-11.65,58.04-32.8,79.2C597.04,642.35,568.92,654,539,654s-58.04-11.65-79.2-32.8
				C438.65,600.04,427,571.92,427,542s11.65-58.04,32.8-79.2c21.16-21.15,49.28-32.8,79.2-32.8s58.04,11.65,79.2,32.8
				C639.35,483.96,651,512.08,651,542z"/>
			<path class="st4" d="M731.33,349.67C679.96,298.29,611.65,270,539,270s-140.96,28.29-192.33,79.67
				C295.29,401.04,267,469.35,267,542s28.29,140.96,79.67,192.33C398.04,785.71,466.35,814,539,814s140.96-28.29,192.33-79.67
				C782.71,682.96,811,614.65,811,542S782.71,401.04,731.33,349.67z M618.2,621.2C597.04,642.35,568.92,654,539,654
				s-58.04-11.65-79.2-32.8C438.65,600.04,427,571.92,427,542s11.65-58.04,32.8-79.2c21.16-21.15,49.28-32.8,79.2-32.8
				s58.04,11.65,79.2,32.8c21.15,21.16,32.8,49.28,32.8,79.2S639.35,600.04,618.2,621.2z"/>
			<path class="st5" d="M486.84,500.52l-2.41,3.19c-3.98,5.26-11.54,6.32-16.81,2.33L127.81,249.13
				c-5.26-3.98-6.32-11.54-2.33-16.81l2.41-3.19c3.98-5.26,11.54-6.32,16.81-2.33L484.5,483.71
				C489.77,487.69,490.82,495.26,486.84,500.52z"/>
			<polygon class="st2" points="49.11,273.62 127.1,249.84 293.12,375.37 210.61,390.71 			"/>
			<polygon class="st2" points="146.81,144.4 145.19,225.91 311.21,351.44 303.48,267.87 			"/>
		</g>
	</g>
</g>
<g id="ACCELERATOR">
	<g class="st7">
		<rect x="1061" y="96" class="st19" width="1278" height="91"/>
		<rect x="1051" y="280" class="st19" width="1278" height="91"/>
		<rect x="1041" y="464" class="st19" width="1278" height="91"/>
		<rect x="1031" y="648" class="st19" width="1278" height="91"/>
		<rect x="1021" y="832" class="st19" width="1278" height="91"/>
		<rect x="1011" y="1016" class="st19" width="1278" height="91"/>
	</g>
</g>
<g id="INCUBATORz">
</g>
<g id="START-UP_CONTEST">
</g>
<g id="CO-WORKING">
</g>
<g id="simple">
</g>
<g id="icon_trắng">
</g>
</svg>
