<?xml version="1.0" encoding="utf-8"?>
<!-- Generator: Adobe Illustrator 26.0.2, SVG Export Plug-In . SVG Version: 6.00 Build 0)  -->
<svg version="1.1" xmlns="http://www.w3.org/2000/svg" xmlns:xlink="http://www.w3.org/1999/xlink" x="0px" y="0px"
	 viewBox="0 0 1080 1080" style="enable-background:new 0 0 1080 1080;" xml:space="preserve">
<style type="text/css">
	.st0{fill:#00689C;}
	.st1{fill:#3E7E46;}
	.st2{fill:#FBC409;}
	.st3{fill:#FD9E23;}
	.st4{fill:#FE6925;}
	.st5{fill:#C4192D;}
	.st6{display:none;fill:#FE6925;}
	.st7{display:none;}
	.st8{display:inline;}
	.st9{clip-path:url(#SVGID_00000101821568693322970130000009671447495865326015_);}
	.st10{fill:#3C7D46;}
	.st11{clip-path:url(#SVGID_00000036234571717964517680000017129171709158369205_);fill:#04679B;}
	.st12{display:inline;fill:#FBC409;}
	.st13{clip-path:url(#SVGID_00000059997592255884719380000013023326192184335744_);}
	.st14{fill:#C3192C;}
	.st15{display:inline;fill:#C4192D;}
	.st16{clip-path:url(#SVGID_00000116940965996493205070000016863818974423710141_);fill:#00689C;}
	.st17{fill:#F8C12B;}
	.st18{fill:#FFFFFF;}
	.st19{display:inline;fill:#C3192C;}
	.st20{display:none;fill:#00689C;}
	.st21{display:inline;fill:#FE6925;}
	.st22{clip-path:url(#SVGID_00000008108466547545139860000017804402078846007213_);fill:#FAC31A;}
	.st23{display:inline;fill:#00689C;}
	.st24{fill:#FAC31A;}
	.st25{fill:#04679B;}
	.st26{fill:#26BDE2;}
</style>
<g id="startup">
</g>
<g id="startup_2_years">
</g>
<g id="web3">
	<g>
		<rect x="-2" y="-2" class="st0" width="1084" height="1081"/>
		<g>
			<path class="st2" d="M912.01,296.15L557.68,91.57l-22.25-12.85l-22.2,12.81l-352.99,203.8l-24.21,13.98v461.18l22.81,13.17
				l354.39,204.62l22.2,12.81l38.18-22.04l336.51-194.29l24.71-14.28V309.32L912.01,296.15z M180.48,358.4l311.95,180.43
				L180.48,719.27V358.4z M513.23,936.96L202.78,757.72l310.45-179.56V936.96z M513.23,499.52L204.64,321.03l308.59-178.17V499.52z
				 M557.68,142.89l309.93,178.94L557.68,501.09V142.89z M557.68,936.92V576.57l311.78,180.35L557.68,936.92z M890.38,717.66
				L581.22,538.84L890.38,360V717.66z"/>
			<circle class="st4" cx="535.43" cy="539.27" r="137.8"/>
			<circle class="st4" cx="535.43" cy="99.84" r="76.84"/>
			<circle class="st4" cx="156.33" cy="319.55" r="76.84"/>
			<circle class="st4" cx="156.33" cy="757.72" r="76.84"/>
			<circle class="st4" cx="535.43" cy="976.16" r="76.84"/>
			<circle class="st4" cx="915.17" cy="757.72" r="76.84"/>
			<circle class="st4" cx="915.17" cy="319.55" r="76.84"/>
		</g>
	</g>
</g>
<g id="Health_tech">
</g>
<g id="Green_startup">
</g>
<g id="E-commerce">
	<g>
		<g>
			<defs>
				<rect id="SVGID_00000104664195889753135470000015780565503838268572_" x="-11" y="1103" width="1095" height="1092"/>
			</defs>
			<use xlink:href="#SVGID_00000104664195889753135470000015780565503838268572_"  style="overflow:visible;fill:#FAC31A;"/>
			<clipPath id="SVGID_00000040573340704814038930000011819519574724529063_">
				<use xlink:href="#SVGID_00000104664195889753135470000015780565503838268572_"  style="overflow:visible;"/>
			</clipPath>
			
				<rect x="-455" y="430" style="clip-path:url(#SVGID_00000040573340704814038930000011819519574724529063_);fill:#04679B;" width="1014" height="1262"/>
		</g>
	</g>
</g>
<g id="Ecosystem_Hero">
</g>
<g id="FOUNDER">
</g>
<g id="INVESTOR">
</g>
<g id="Diversity_Rolez">
</g>
<g id="SOCIAL_IMPACT">
</g>
<g id="ACCELERATOR">
</g>
<g id="INCUBATORz">
</g>
<g id="START-UP_CONTEST">
</g>
<g id="CO-WORKING">
</g>
<g id="simple">
</g>
<g id="icon_trắng">
</g>
</svg>
