<?xml version="1.0" encoding="utf-8"?>
<!-- Generator: Adobe Illustrator 26.0.2, SVG Export Plug-In . SVG Version: 6.00 Build 0)  -->
<svg version="1.1" xmlns="http://www.w3.org/2000/svg" xmlns:xlink="http://www.w3.org/1999/xlink" x="0px" y="0px"
	 viewBox="0 0 1080 1080" style="enable-background:new 0 0 1080 1080;" xml:space="preserve">
<style type="text/css">
	.st0{fill:#00689C;}
	.st1{fill:#3E7E46;}
	.st2{fill:#FBC409;}
	.st3{fill:#FD9E23;}
	.st4{fill:#FE6925;}
	.st5{fill:#C4192D;}
	.st6{display:none;fill:#FE6925;}
	.st7{display:none;}
	.st8{display:inline;}
	.st9{clip-path:url(#SVGID_00000122690861473812449200000004397884918082002344_);}
	.st10{fill:#3C7D46;}
	.st11{clip-path:url(#SVGID_00000069385677655746035290000016595437455048960691_);fill:#04679B;}
	.st12{display:inline;fill:#FBC409;}
	.st13{clip-path:url(#SVGID_00000175316146291538029930000008974809505707413926_);}
	.st14{fill:#C3192C;}
	.st15{display:inline;fill:#C4192D;}
	.st16{clip-path:url(#SVGID_00000020385713395963518960000015256687901717887658_);fill:#00689C;}
	.st17{fill:#F8C12B;}
	.st18{fill:#FFFFFF;}
	.st19{display:inline;fill:#C3192C;}
	.st20{display:none;fill:#00689C;}
	.st21{display:inline;fill:#FE6925;}
	.st22{clip-path:url(#SVGID_00000062184008075187860170000011941032558964325567_);fill:#FAC31A;}
	.st23{display:inline;fill:#00689C;}
	.st24{fill:#FAC31A;}
	.st25{fill:#04679B;}
	.st26{fill:#26BDE2;}
</style>
<g id="startup">
	<rect class="st0" width="1084" height="1081"/>
	<polygon class="st1" points="-11,1085 1089,-13 1089,1085 	"/>
	<g>
		
			<rect x="274.03" y="862.06" transform="matrix(0.7071 -0.7071 0.7071 0.7071 -534.4952 504.2892)" class="st2" width="134.9" height="70.56"/>
		
			<rect x="115.07" y="815.83" transform="matrix(0.7071 -0.7071 0.7071 0.7071 -534.6896 411.3661)" class="st2" width="228.29" height="70.56"/>
		
			<rect x="115.54" y="703.56" transform="matrix(0.7071 -0.7071 0.7071 0.7071 -468.8456 345.797)" class="st2" width="134.9" height="70.56"/>
		<path class="st3" d="M823.44,524.42l-2.07-6.74l155.66-155.66l0-2.47l0-254.56l-253.68,0L565.52,262.83l-5.28-1.61L414,216.24
			L126.63,503.61l151.52,46.59l-52.73,52.73l255.35,255.35l53.24-53.24l46.59,151.52l287.37-287.37L823.44,524.42z M825.64,258.06
			c34.03,34.03,34.05,89.23,0,123.27c-34.05,34.05-89.24,34.03-123.27,0c-34.05-34.05-34.05-89.23,0-123.27
			S791.59,224.02,825.64,258.06z"/>
	</g>
</g>
<g id="startup_2_years">
</g>
<g id="web3">
</g>
<g id="Health_tech">
</g>
<g id="Green_startup">
	<g>
		<g>
			<g>
				<defs>
					<rect id="SVGID_00000173145847816043728870000017148293512735603388_" x="1104" y="1103" width="1085" height="1090"/>
				</defs>
				<use xlink:href="#SVGID_00000173145847816043728870000017148293512735603388_"  style="overflow:visible;fill:#FD9E23;"/>
				<clipPath id="SVGID_00000092418706878281043570000018229628234483708813_">
					<use xlink:href="#SVGID_00000173145847816043728870000017148293512735603388_"  style="overflow:visible;"/>
				</clipPath>
				<g style="clip-path:url(#SVGID_00000092418706878281043570000018229628234483708813_);">
					<polygon class="st2" points="1064,1055 1648,1048 1648,2212 1049,2227 					"/>
				</g>
			</g>
		</g>
	</g>
</g>
<g id="E-commerce">
</g>
<g id="Ecosystem_Hero">
</g>
<g id="FOUNDER">
</g>
<g id="INVESTOR">
</g>
<g id="Diversity_Rolez">
</g>
<g id="SOCIAL_IMPACT">
</g>
<g id="ACCELERATOR">
</g>
<g id="INCUBATORz">
</g>
<g id="START-UP_CONTEST">
</g>
<g id="CO-WORKING">
</g>
<g id="simple">
</g>
<g id="icon_trắng">
</g>
</svg>
