<?xml version="1.0" encoding="utf-8"?>
<!-- Generator: Adobe Illustrator 26.0.2, SVG Export Plug-In . SVG Version: 6.00 Build 0)  -->
<svg version="1.1" id="Layer_1" xmlns="http://www.w3.org/2000/svg" xmlns:xlink="http://www.w3.org/1999/xlink" x="0px" y="0px"
	 viewBox="0 0 900 900" style="enable-background:new 0 0 900 900;" xml:space="preserve">
<style type="text/css">
	.st0{fill-rule:evenodd;clip-rule:evenodd;fill:#056699;}
	.st1{fill-rule:evenodd;clip-rule:evenodd;fill:#3C7E45;}
	.st2{fill-rule:evenodd;clip-rule:evenodd;fill:#C1202D;}
	.st3{fill-rule:evenodd;clip-rule:evenodd;fill:#F6C023;}
	.st4{fill-rule:evenodd;clip-rule:evenodd;fill:#F1682C;}
	.st5{fill-rule:evenodd;clip-rule:evenodd;fill:#F89C2A;}
	.st6{display:none;fill:none;stroke:#FFFFFF;stroke-width:3.8154;stroke-miterlimit:10;}
	.st7{fill:#056699;}
	.st8{fill:#CF2330;}
	.st9{fill:#F1682C;}
	.st10{fill:#C1202D;}
	.st11{fill:#F6C023;}
	.st12{fill:#F89C2A;}
	.st13{fill:#3C7E45;}
	.st14{fill:#F9A719;}
	.st15{fill:#01597F;}
	.st16{fill:#F5841F;}
	.st17{fill:#488E50;}
	.st18{fill:#EF4C23;}
	.st19{fill:#58595B;}
	.st20{fill:#A7A9AC;}
	.st21{fill:#808285;}
	.st22{fill:#939598;}
	.st23{display:none;}
	.st24{fill:#FFFFFF;}
	.st25{fill:#F1F2F2;}
</style>
<rect x="-1932.47" y="-36.78" class="st23" width="2924.94" height="973.56"/>
<g>
	<g>
		<g>
			<g>
				<g>
					<path class="st24" d="M277.34,447.34c-2.6,0-4.91-1.68-5.71-4.15l-13.42-41.39c-0.59-1.83-0.27-3.83,0.85-5.38
						c1.13-1.55,2.93-2.47,4.85-2.47h13.31c2.63,0,4.96,1.72,5.73,4.24l4.07,13.23l4.19-13.27c0.79-2.5,3.1-4.19,5.72-4.19h12.42
						c1.92,0,3.72,0.92,4.85,2.47c1.13,1.55,1.45,3.55,0.85,5.38l-13.42,41.39c-0.8,2.47-3.11,4.15-5.71,4.15H277.34z"/>
				</g>
				<g>
					<path class="st24" d="M312.72,447.34c-3.31,0-6-2.69-6-6v-41.39c0-3.31,2.69-6,6-6h12.69c3.31,0,6,2.69,6,6v41.39
						c0,3.31-2.69,6-6,6H312.72z"/>
				</g>
				<g>
					<path class="st24" d="M332.13,447.34c-3.31,0-6-2.69-6-6v-41.39c0-3.31,2.69-6,6-6h33.45c3.31,0,6,2.69,6,6v9.68
						c0,2.21-1.19,4.13-2.96,5.18c0.02,0.19,0.03,0.39,0.03,0.58v9.68c0,0.42-0.04,0.83-0.12,1.22c1.98,0.98,3.34,3.02,3.34,5.38
						v9.68c0,3.31-2.69,6-6,6H332.13z"/>
				</g>
				<g>
					<path class="st24" d="M381.55,447.34c-3.31,0-6-2.69-6-6v-25.27h-7.37c-3.31,0-6-2.69-6-6v-10.12c0-3.31,2.69-6,6-6h39.46
						c3.31,0,6,2.69,6,6v10.12c0,3.31-2.69,6-6,6h-7.37v25.27c0,3.31-2.69,6-6,6H381.55z"/>
				</g>
				<g>
					<path class="st24" d="M439.56,447.34c-1.97,0-3.81-0.97-4.93-2.58l-5.21-7.52v4.1c0,3.31-2.69,6-6,6h-11.94c-3.31,0-6-2.69-6-6
						v-41.39c0-3.31,2.69-6,6-6h12.69c1.97,0,3.81,0.97,4.93,2.58l5.21,7.52v-4.1c0-3.31,2.69-6,6-6h11.94c3.31,0,6,2.69,6,6v41.39
						c0,3.31-2.69,6-6,6H439.56z"/>
				</g>
				<g>
					<path class="st24" d="M488.92,447.34c-2.64,0-4.98-1.73-5.74-4.26l-1.56-5.16h-6.11l-1.56,5.16c-0.77,2.53-3.1,4.26-5.74,4.26
						h-12.31c-1.92,0-3.73-0.92-4.85-2.47c-1.13-1.55-1.45-3.55-0.85-5.38l13.45-41.39c0.8-2.47,3.11-4.15,5.71-4.15h18.51
						c2.6,0,4.9,1.67,5.71,4.14l13.48,41.39c0.59,1.83,0.28,3.83-0.85,5.38s-2.93,2.48-4.86,2.48H488.92z"/>
				</g>
				<g>
					<path class="st24" d="M544.07,447.34c-3.31,0-6-2.69-6-6v-0.65c-0.74,0.32-1.55,0.5-2.39,0.5h-10.35
						c-0.85,0-1.67-0.18-2.42-0.51v0.66c0,3.31-2.69,6-6,6h-11.83c-3.31,0-6-2.69-6-6v-41.39c0-3.31,2.69-6,6-6h15.46
						c2.36,0,4.51,1.39,5.48,3.55l4.56,10.18l4.34-10.09c0.95-2.2,3.11-3.63,5.51-3.63h15.5c3.31,0,6,2.69,6,6v41.39
						c0,3.31-2.69,6-6,6H544.07z"/>
				</g>
				<g>
					<path class="st24" d="M590.75,447.9c-5.44,0-10.53-0.73-15.14-2.18c-2.5-0.78-4.2-3.1-4.2-5.73v-9.99
						c0-1.92,0.92-3.73,2.48-4.86c0.23-0.17,0.47-0.32,0.72-0.45c-2.88-3.09-4.4-7.2-4.4-11.92c0-6.3,2.62-11.44,7.58-14.88
						c4.39-3.04,10.37-4.52,18.28-4.52c4.59,0,8.81,0.49,12.54,1.45c2.65,0.68,4.5,3.07,4.5,5.81v9.99c0,1.9-0.9,3.69-2.43,4.83
						c-0.14,0.1-0.29,0.2-0.44,0.29c0.11,0.1,0.22,0.21,0.33,0.32c3.22,3.16,4.92,7.42,4.92,12.32c0,4.06-1.15,7.68-3.42,10.75
						c-2.18,2.95-5.25,5.21-9.14,6.71C599.45,447.21,595.35,447.9,590.75,447.9z"/>
				</g>
				<g>
					<path class="st24" d="M622.58,447.34c-3.31,0-6-2.69-6-6v-25.27h-7.37c-3.31,0-6-2.69-6-6v-10.12c0-3.31,2.69-6,6-6h39.46
						c3.31,0,6,2.69,6,6v10.12c0,3.31-2.69,6-6,6h-7.37v25.27c0,3.31-2.69,6-6,6H622.58z"/>
				</g>
				<g>
					<path class="st24" d="M676.83,447.34c-2.64,0-4.98-1.73-5.74-4.26l-1.56-5.16h-6.11l-1.56,5.16c-0.77,2.53-3.1,4.26-5.74,4.26
						H643.8c-1.92,0-3.73-0.92-4.85-2.47c-1.13-1.55-1.45-3.55-0.85-5.38l13.45-41.39c0.8-2.47,3.11-4.15,5.71-4.15h18.51
						c2.6,0,4.9,1.67,5.71,4.14l13.48,41.39c0.59,1.83,0.28,3.83-0.85,5.38s-2.93,2.48-4.86,2.48H676.83z"/>
				</g>
				<g>
					<path class="st24" d="M717.78,447.34c-1.97,0-3.81-0.96-4.93-2.58l-1.61-2.33c-0.51,2.79-2.96,4.91-5.9,4.91h-12.45
						c-3.31,0-6-2.69-6-6v-40.19c0-2.78,1.91-5.19,4.61-5.84c2.4-0.57,5.11-1.04,8.07-1.39c2.98-0.35,5.78-0.53,8.34-0.53
						c7.88,0,13.84,1.47,18.24,4.5c3.46,2.39,7.59,7.01,7.59,15.52c0,3.93-0.96,7.42-2.86,10.39c-0.66,1.02-1.41,1.98-2.25,2.85
						l7.91,11.25c1.29,1.83,1.45,4.23,0.42,6.22s-3.08,3.24-5.33,3.24H717.78z"/>
				</g>
				<g>
					<path class="st24" d="M742.36,447.34c-3.31,0-6-2.69-6-6v-25.27H729c-3.31,0-6-2.69-6-6v-10.12c0-3.31,2.69-6,6-6h39.46
						c3.31,0,6,2.69,6,6v10.12c0,3.31-2.69,6-6,6h-7.37v25.27c0,3.31-2.69,6-6,6H742.36z"/>
				</g>
				<g>
					<path class="st24" d="M792.15,447.9c-8.55,0-15.09-2.24-19.46-6.65c-4.35-4.39-6.56-10.67-6.56-18.68v-22.62c0-3.31,2.69-6,6-6
						h12.7c3.31,0,6,2.69,6,6v23.72c0,1.1,0.14,1.69,0.22,1.95c0.18,0.05,0.52,0.11,1.1,0.11c0.56,0,0.9-0.06,1.08-0.11
						c0.09-0.26,0.22-0.86,0.22-1.95v-23.72c0-3.31,2.69-6,6-6h12.5c3.31,0,6,2.69,6,6v22.62c0,7.98-2.19,14.25-6.52,18.65
						C807.08,445.66,800.59,447.9,792.15,447.9z"/>
				</g>
				<g>
					<path class="st24" d="M818.46,447.34c-3.31,0-6-2.69-6-6v-40.56c0-2.88,2.05-5.35,4.88-5.89c5.23-1,10.49-1.5,15.64-1.5
						c8.4,0,14.67,1.61,19.18,4.93c3.44,2.54,7.54,7.48,7.54,16.59c0,8.75-3.9,13.7-7.17,16.3c-3.82,3.04-8.98,4.77-15.37,5.14v4.99
						c0,3.31-2.69,6-6,6H818.46z"/>
				</g>
			</g>
			<g>
				<g>
					<path class="st24" d="M308.49,542.16c-2.64,0-4.98-1.73-5.74-4.26l-2.53-8.35h-11.19l-2.53,8.35c-0.77,2.53-3.1,4.26-5.74,4.26
						h-16.47c-1.92,0-3.73-0.92-4.85-2.47c-1.13-1.55-1.45-3.55-0.85-5.38l18-55.4c0.8-2.47,3.11-4.15,5.71-4.15h24.78
						c2.6,0,4.9,1.67,5.71,4.14l18.04,55.4c0.6,1.83,0.28,3.83-0.85,5.38s-2.93,2.48-4.86,2.48H308.49z"/>
				</g>
				<g>
					<path class="st24" d="M380.51,542.16c-2.71,0-5.08-1.81-5.79-4.43l-4.6-16.92l-4.84,16.99c-0.73,2.58-3.09,4.36-5.77,4.36
						h-21.56c-2.7,0-5.07-1.8-5.78-4.41l-15.27-55.4c-0.5-1.81-0.12-3.74,1.01-5.23c1.13-1.49,2.9-2.36,4.77-2.36h17.14
						c2.74,0,5.14,1.86,5.81,4.52l4.64,18.21l5.14-18.34c0.73-2.59,3.09-4.38,5.78-4.38h18.57c2.72,0,5.1,1.83,5.8,4.46l4.98,18.72
						l4.9-18.7c0.69-2.64,3.08-4.48,5.8-4.48h16.1c1.87,0,3.64,0.87,4.77,2.36c1.13,1.49,1.51,3.42,1.01,5.23l-15.23,55.4
						c-0.72,2.6-3.08,4.41-5.79,4.41H380.51z"/>
				</g>
				<g>
					<path class="st24" d="M459.12,542.16c-2.64,0-4.98-1.73-5.74-4.26l-2.53-8.35h-11.19l-2.53,8.35c-0.77,2.53-3.1,4.26-5.74,4.26
						h-16.47c-1.92,0-3.73-0.92-4.85-2.47c-1.13-1.55-1.45-3.55-0.85-5.38l18-55.4c0.8-2.47,3.11-4.15,5.71-4.15h24.78
						c2.6,0,4.9,1.67,5.71,4.14l18.04,55.4c0.59,1.83,0.28,3.83-0.85,5.38s-2.93,2.48-4.86,2.48H459.12z"/>
				</g>
				<g>
					<path class="st24" d="M513.92,542.16c-1.97,0-3.81-0.96-4.93-2.58l-5.73-8.26v4.85c0,3.31-2.69,6-6,6H480.6c-3.31,0-6-2.69-6-6
						v-53.79c0-2.77,1.9-5.19,4.6-5.83c3.14-0.75,6.7-1.37,10.57-1.83c3.9-0.46,7.57-0.7,10.93-0.7c10.12,0,17.73,1.85,23.26,5.66
						c4.23,2.92,9.28,8.6,9.28,19.09c0,4.87-1.18,9.19-3.51,12.82c-1.1,1.72-2.43,3.27-3.97,4.64l11.59,16.48
						c1.29,1.83,1.45,4.23,0.42,6.22s-3.08,3.24-5.33,3.24H513.92z M503.26,499.57c1.12-0.03,1.8-0.18,2.16-0.29
						c0.01-0.13,0.02-0.3,0.02-0.52c0-0.21-0.01-0.36-0.03-0.46c-0.32-0.13-1-0.31-2.16-0.37V499.57z"/>
				</g>
				<g>
					<path class="st24" d="M554.46,542.72c-2.8,0-5.9-0.09-9.2-0.25c-3.35-0.17-6.45-0.43-9.21-0.77c-3.01-0.37-5.26-2.93-5.26-5.95
						v-53.37c0-2.79,1.92-5.21,4.64-5.84c3.14-0.73,6.79-1.32,10.85-1.74c4.05-0.42,7.98-0.63,11.7-0.63
						c12.8,0,22.75,2.78,29.57,8.27c7.21,5.81,10.87,14.56,10.87,26.03c0,7.87-1.73,14.45-5.14,19.57
						c-3.48,5.24-8.7,9.09-15.51,11.46C571.59,541.63,563.74,542.72,554.46,542.72z M559.78,517.31c3.19-0.06,5.04-0.57,6.04-1
						c1.05-0.45,1.73-1.07,2.23-2.03c0.47-0.9,1.03-2.67,1.03-5.94c0-2.34-0.33-5.43-1.92-6.84c-1.36-1.21-3.9-1.89-7.38-1.97
						V517.31z"/>
				</g>
				<g>
					<path class="st24" d="M616.74,542.91c-7.07,0-13.68-0.95-19.65-2.82c-2.5-0.78-4.2-3.1-4.2-5.73V521
						c0-1.92,0.92-3.73,2.47-4.86c1.04-0.75,2.28-1.14,3.53-1.14c0.19,0,0.37,0.01,0.56,0.03c-0.89-0.66-1.71-1.37-2.46-2.13
						c-3.79-3.84-5.71-8.88-5.71-14.96c0-7.74,3.21-14.05,9.27-18.24c5.53-3.83,13.16-5.69,23.31-5.69c5.97,0,11.45,0.63,16.28,1.88
						c2.65,0.68,4.5,3.07,4.5,5.81v13.36c0,1.9-0.9,3.69-2.43,4.82c-1.05,0.77-2.3,1.18-3.57,1.18c-0.07,0-0.14,0-0.21,0
						c1.28,0.83,2.42,1.74,3.43,2.73c3.96,3.89,5.97,8.95,5.97,15.04c0,4.98-1.41,9.42-4.18,13.18c-2.69,3.65-6.5,6.44-11.33,8.31
						C627.86,542.04,622.62,542.91,616.74,542.91z"/>
				</g>
				<g>
					<path class="st24" d="M665.96,542.16c-3.31,0-6-2.69-6-6v-8.84c0-1.49,0.56-2.93,1.56-4.04l16.43-18.08
						c2.33-2.57,3.36-4.09,3.81-4.9c0.19-0.35,0.32-0.63,0.41-0.87c-0.64-0.11-1.67-0.22-3.26-0.22c-1.98,0-4.05,0.19-6.16,0.56
						c-2.09,0.37-3.91,0.84-5.39,1.39c-0.67,0.25-1.38,0.37-2.08,0.37c-1.21,0-2.41-0.37-3.43-1.08c-1.61-1.12-2.57-2.96-2.57-4.92
						v-13.36c0-2.6,1.68-4.91,4.15-5.71c2.19-0.71,4.85-1.28,8.13-1.76c3.2-0.46,6.19-0.7,8.91-0.7c9.71,0,16.89,1.69,21.96,5.17
						c3.92,2.7,8.59,7.95,8.59,17.67c0,3.74-0.81,7.43-2.4,10.94c-1.3,2.86-3.3,5.83-5.95,8.85h4.93c3.31,0,6,2.69,6,6v13.51
						c0,3.31-2.69,6-6,6H665.96z"/>
				</g>
				<g>
					<path class="st24" d="M736.78,542.91c-6.13,0-11.56-1.33-16.13-3.96c-4.75-2.73-8.41-6.83-10.9-12.21
						c-2.32-5.02-3.49-11.17-3.49-18.28c0-7.11,1.17-13.26,3.49-18.28c2.49-5.38,6.16-9.49,10.9-12.21c4.57-2.63,10-3.96,16.13-3.96
						c6.16,0,11.59,1.33,16.17,3.96c4.74,2.73,8.42,6.84,10.91,12.22c2.33,5.04,3.51,11.19,3.51,18.27c0,7.08-1.18,13.23-3.51,18.26
						c-2.5,5.39-6.17,9.5-10.92,12.22C748.38,541.58,742.94,542.91,736.78,542.91z M736.11,517.2c0.09,0.03,0.31,0.08,0.71,0.08
						c0.41,0,0.59-0.06,0.62-0.08c0-0.01,0.32-0.41,0.65-1.6c0.32-1.13,0.7-3.27,0.7-7.13c0-3.87-0.38-6.01-0.69-7.13
						c-0.36-1.27-0.7-1.65-0.7-1.65c0,0,0,0,0,0c-0.03,0-0.24-0.05-0.58-0.05c-0.43,0-0.63,0.07-0.67,0.09
						c0,0.01-0.31,0.42-0.65,1.6c-0.32,1.12-0.69,3.27-0.69,7.14c0,3.9,0.37,6.07,0.68,7.2
						C735.76,516.63,736.02,517.06,736.11,517.2z"/>
				</g>
				<g>
					<path class="st24" d="M766.24,542.16c-3.31,0-6-2.69-6-6v-8.84c0-1.49,0.56-2.93,1.56-4.04l16.43-18.08
						c2.33-2.57,3.35-4.08,3.81-4.9c0.19-0.35,0.32-0.63,0.41-0.87c-0.64-0.11-1.67-0.22-3.26-0.22c-1.98,0-4.05,0.19-6.16,0.56
						c-2.09,0.37-3.91,0.84-5.39,1.39c-0.67,0.25-1.38,0.37-2.08,0.37c-1.21,0-2.41-0.37-3.43-1.08c-1.61-1.12-2.57-2.96-2.57-4.92
						v-13.36c0-2.6,1.68-4.91,4.15-5.71c2.19-0.71,4.85-1.28,8.13-1.76c3.19-0.46,6.19-0.7,8.91-0.7c9.71,0,16.89,1.69,21.96,5.17
						c3.92,2.7,8.59,7.95,8.59,17.67c0,3.74-0.81,7.42-2.4,10.94c-1.3,2.86-3.3,5.83-5.95,8.85h4.93c3.31,0,6,2.69,6,6v13.51
						c0,3.31-2.69,6-6,6H766.24z"/>
				</g>
				<g>
					<path class="st24" d="M828.41,542.91c-6.14,0-12.14-0.7-17.84-2.08c-2.69-0.65-4.59-3.06-4.59-5.83v-12.09
						c0-1.84,0.84-3.58,2.29-4.71c1.07-0.84,2.38-1.29,3.71-1.29c0.07,0,0.14,0,0.22,0c-0.48-0.86-0.75-1.86-0.75-2.91v-12.2
						c0-0.57,0.08-1.12,0.23-1.64c-0.83-0.16-1.62-0.5-2.33-1.01c-1.57-1.13-2.5-2.94-2.5-4.87v-12.13c0-2.61,1.69-4.92,4.17-5.72
						c2.28-0.73,5.05-1.32,8.25-1.76c3.15-0.44,6.18-0.66,9-0.66c9.07,0,15.88,1.67,20.82,5.09c5.48,3.8,8.38,9.51,8.38,16.52
						c0,4.22-1.2,7.96-3.56,11.12c0.4,0.37,0.78,0.76,1.14,1.17c2.87,3.26,4.33,7.46,4.33,12.49c0,7.18-3.01,13.09-8.7,17.09
						C845.48,541.14,838.2,542.91,828.41,542.91z"/>
				</g>
			</g>
		</g>
	</g>
	<g>
		<g>
			<path class="st7" d="M296.95,399.95h12.42l-13.42,41.39h-18.6l-13.42-41.39h13.31l9.73,31.63L296.95,399.95z"/>
			<path class="st7" d="M312.72,441.34v-41.39h12.69v41.39H312.72z"/>
			<path class="st7" d="M344.66,431.67h21.2v9.68h-33.73v-41.39h33.45v9.68h-20.92v5.76h17.98v9.68h-17.98V431.67z"/>
			<path class="st7" d="M381.55,441.34v-31.27h-13.37v-10.12h39.46v10.12h-13.37v31.27H381.55z"/>
			<path class="st7" d="M440.31,399.95h11.94v41.39h-12.7l-16.14-23.3v23.3h-11.94v-41.39h12.69l16.14,23.3V399.95z"/>
			<path class="st7" d="M488.92,441.34l-2.85-9.43h-15.02l-2.85,9.43h-12.31l13.45-41.39h18.51l13.48,41.39H488.92z M473.93,422.3
				h9.23l-4.61-15.24L473.93,422.3z"/>
			<path class="st7" d="M540.44,399.95h15.5v41.39h-11.86v-25.42l-8.39,19.27h-10.35l-8.41-18.27v24.42h-11.83v-41.39h15.46
				l10.15,22.65L540.44,399.95z"/>
			<path class="st8" d="M577.41,440v-9.99c1.83,0.6,4,1.08,6.51,1.46c2.5,0.37,4.79,0.56,6.86,0.56c2.31,0,3.92-0.25,4.83-0.74
				c0.9-0.49,1.35-1.21,1.35-2.14c0-0.52-0.12-0.95-0.36-1.3c-0.24-0.35-0.69-0.66-1.35-0.94s-1.63-0.56-2.9-0.84l-3.86-0.87
				c-4.21-0.92-7.31-2.38-9.3-4.39c-1.99-2.01-2.98-4.69-2.98-8.03c0-4.32,1.66-7.64,4.99-9.94c3.33-2.3,8.28-3.45,14.86-3.45
				c4.1,0,7.78,0.42,11.05,1.26v9.99c-1.34-0.41-2.96-0.74-4.85-0.99c-1.89-0.25-3.76-0.38-5.61-0.38c-2.95,0-5,0.26-6.17,0.79
				c-1.17,0.52-1.75,1.25-1.75,2.18c0,0.47,0.1,0.85,0.31,1.16c0.2,0.31,0.57,0.58,1.1,0.82c0.53,0.25,1.31,0.49,2.34,0.73
				l3.86,0.87c4.6,0.99,7.95,2.5,10.03,4.54c2.08,2.04,3.12,4.72,3.12,8.04c0,2.76-0.75,5.16-2.25,7.19
				c-1.5,2.03-3.66,3.59-6.48,4.68c-2.81,1.09-6.15,1.64-10.01,1.64C585.9,441.9,581.45,441.27,577.41,440z"/>
			<path class="st8" d="M622.58,441.34v-31.27h-13.37v-10.12h39.46v10.12H635.3v31.27H622.58z"/>
			<path class="st8" d="M676.83,441.34l-2.85-9.43h-15.02l-2.85,9.43H643.8l13.45-41.39h18.51l13.48,41.39H676.83z M661.84,422.3
				h9.23l-4.61-15.24L661.84,422.3z"/>
			<path class="st8" d="M717.78,441.34l-9.59-13.85l-2.85-0.09v13.93h-12.45v-40.19c2.18-0.52,4.64-0.95,7.38-1.27
				c2.74-0.32,5.28-0.49,7.63-0.49c6.57,0,11.51,1.15,14.84,3.44c3.33,2.29,4.99,5.82,4.99,10.57c0,2.78-0.64,5.16-1.92,7.16
				c-1.28,1.99-3.11,3.57-5.49,4.73l11.3,16.06H717.78z M705.34,418.24c1.32,0.17,2.68,0.25,4.08,0.25c2.2,0,3.84-0.39,4.91-1.17
				c1.07-0.79,1.61-2.09,1.61-3.92c0-1.73-0.56-3.02-1.68-3.86c-1.12-0.84-2.8-1.26-5.04-1.26c-1.17,0-2.47,0.12-3.89,0.36V418.24z"
				/>
			<path class="st8" d="M742.36,441.34v-31.27H729v-10.12h39.46v10.12h-13.37v31.27H742.36z"/>
			<path class="st8" d="M776.95,437.03c-3.22-3.24-4.82-8.06-4.82-14.46v-22.62h12.69v23.72c0,2.78,0.61,4.82,1.83,6.11
				c1.22,1.3,3.05,1.95,5.49,1.95c2.44,0,4.27-0.65,5.48-1.95c1.21-1.3,1.82-3.33,1.82-6.11v-23.72h12.5v22.62
				c0,6.38-1.6,11.2-4.8,14.45s-8.2,4.88-15.01,4.88C785.23,441.9,780.16,440.28,776.95,437.03z"/>
			<path class="st8" d="M818.46,400.79c4.88-0.93,9.72-1.4,14.51-1.4c7.01,0,12.22,1.25,15.62,3.76c3.4,2.51,5.1,6.43,5.1,11.76
				c0,5.13-1.63,9-4.91,11.61c-3.27,2.61-8.06,3.92-14.36,3.92l-1.71-0.03c-0.35-0.02-0.87-0.03-1.57-0.03v10.96h-12.69V400.79z
				 M838.46,420.8c1-0.42,1.76-1.1,2.25-2.04c0.49-0.94,0.74-2.21,0.74-3.82c0-2.29-0.58-3.95-1.73-4.98
				c-1.16-1.02-2.99-1.54-5.51-1.54c-1.16,0-2.17,0.07-3.05,0.22v12.56c1.05,0.15,2.17,0.22,3.39,0.22
				C836.15,421.43,837.45,421.22,838.46,420.8z"/>
		</g>
		<g>
			<path class="st9" d="M308.49,536.16l-3.82-12.61h-20.1l-3.82,12.61h-16.47l18-55.4h24.78l18.04,55.4H308.49z M288.43,510.67
				h12.35l-6.17-20.4L288.43,510.67z"/>
			<path class="st9" d="M401.25,480.76h16.1l-15.23,55.4h-21.6l-10.26-37.73l-10.74,37.73h-21.56l-15.27-55.4h17.14l10.18,39.94
				l11.19-39.94h18.57l10.82,40.69L401.25,480.76z"/>
			<path class="st9" d="M459.12,536.16l-3.82-12.61h-20.1l-3.82,12.61h-16.47l18-55.4h24.78l18.04,55.4H459.12z M439.06,510.67
				h12.35l-6.17-20.4L439.06,510.67z"/>
			<path class="st9" d="M513.92,536.16l-12.84-18.53l-3.82-0.12v18.64H480.6v-53.79c2.92-0.7,6.21-1.27,9.88-1.7
				s7.08-0.66,10.22-0.66c8.78,0,15.4,1.53,19.86,4.6c4.45,3.07,6.68,7.79,6.68,14.15c0,3.72-0.85,6.91-2.56,9.58
				c-1.71,2.67-4.16,4.78-7.35,6.33l15.12,21.49H513.92z M497.26,505.24c1.77,0.22,3.6,0.33,5.47,0.33c2.94,0,5.13-0.52,6.57-1.57
				c1.43-1.05,2.15-2.8,2.15-5.24c0-2.32-0.75-4.04-2.24-5.17c-1.5-1.12-3.74-1.69-6.74-1.69c-1.57,0-3.3,0.16-5.2,0.49V505.24z"/>
			<path class="st9" d="M545.56,536.48c-3.2-0.16-6.13-0.4-8.78-0.73v-53.37c2.9-0.67,6.26-1.21,10.1-1.61
				c3.84-0.4,7.54-0.6,11.08-0.6c11.46,0,20.06,2.31,25.81,6.94c5.75,4.63,8.63,11.75,8.63,21.36c0,6.69-1.38,12.1-4.13,16.24
				c-2.76,4.15-6.92,7.18-12.48,9.11c-5.57,1.94-12.68,2.9-21.34,2.9C551.73,536.72,548.77,536.64,545.56,536.48z M568.19,521.82
				c2.32-1,4.05-2.59,5.18-4.77c1.14-2.18,1.7-5.08,1.7-8.71c0-5.21-1.31-8.99-3.93-11.32s-6.65-3.5-12.09-3.5
				c-0.77,0-1.66,0.05-2.66,0.15s-1.87,0.21-2.62,0.33v29.16c1.17,0.1,2.94,0.15,5.31,0.15
				C562.84,523.32,565.87,522.82,568.19,521.82z"/>
			<path class="st9" d="M598.89,534.36V521c2.45,0.8,5.34,1.45,8.7,1.95c3.36,0.5,6.42,0.75,9.19,0.75c3.09,0,5.25-0.33,6.46-0.99
				c1.21-0.66,1.82-1.62,1.82-2.86c0-0.7-0.16-1.28-0.49-1.74s-0.93-0.88-1.82-1.25c-0.89-0.37-2.18-0.75-3.87-1.12l-5.17-1.16
				c-5.64-1.22-9.79-3.18-12.45-5.88c-2.66-2.69-3.99-6.27-3.99-10.74c0-5.79,2.23-10.22,6.68-13.31c4.46-3.08,11.09-4.62,19.9-4.62
				c5.49,0,10.42,0.56,14.78,1.69v13.36c-1.79-0.55-3.96-0.99-6.49-1.33c-2.53-0.34-5.03-0.51-7.5-0.51c-3.95,0-6.7,0.35-8.25,1.05
				c-1.56,0.7-2.34,1.67-2.34,2.92c0,0.63,0.14,1.14,0.41,1.56c0.28,0.41,0.77,0.78,1.48,1.1c0.71,0.33,1.75,0.65,3.12,0.98
				l5.17,1.16c6.16,1.32,10.64,3.35,13.42,6.08c2.78,2.73,4.17,6.32,4.17,10.76c0,3.7-1,6.9-3.01,9.62
				c-2.01,2.72-4.9,4.81-8.67,6.27c-3.77,1.46-8.23,2.19-13.4,2.19C610.25,536.91,604.3,536.06,598.89,534.36z"/>
			<path class="st9" d="M707.62,522.65v13.51h-41.66v-8.84l16.43-18.08c2.2-2.42,3.74-4.44,4.62-6.04c0.89-1.61,1.33-3.12,1.33-4.51
				c0-1.87-0.71-3.25-2.13-4.14c-1.43-0.89-3.86-1.33-7.3-1.33c-2.34,0-4.75,0.22-7.21,0.66c-2.46,0.44-4.6,0.99-6.42,1.67v-13.36
				c1.85-0.6,4.23-1.11,7.15-1.53c2.92-0.42,5.6-0.64,8.05-0.64c8.39,0,14.57,1.37,18.56,4.12c3.99,2.75,5.99,6.99,5.99,12.73
				c0,2.9-0.62,5.71-1.87,8.46c-1.25,2.74-3.33,5.66-6.25,8.76l-8.24,8.57H707.62z"/>
			<path class="st9" d="M723.64,533.74c-3.67-2.11-6.48-5.28-8.44-9.52c-1.96-4.24-2.94-9.49-2.94-15.76
				c0-6.26,0.98-11.52,2.94-15.76c1.96-4.24,4.78-7.42,8.44-9.52c3.67-2.11,8.05-3.16,13.14-3.16c5.11,0,9.51,1.05,13.18,3.16
				c3.67,2.11,6.49,5.29,8.46,9.54c1.97,4.26,2.96,9.5,2.96,15.74c0,6.24-0.99,11.49-2.96,15.74c-1.97,4.25-4.79,7.44-8.46,9.54
				c-3.67,2.11-8.06,3.16-13.18,3.16C731.69,536.91,727.31,535.86,723.64,533.74z M741.2,521.88c1.17-0.93,2.07-2.49,2.68-4.66
				c0.61-2.17,0.92-5.09,0.92-8.76c0-3.67-0.31-6.59-0.92-8.76c-0.61-2.17-1.5-3.73-2.68-4.66c-1.17-0.93-2.63-1.4-4.38-1.4
				c-1.78,0-3.25,0.47-4.42,1.4c-1.17,0.93-2.07,2.49-2.68,4.66c-0.61,2.17-0.92,5.09-0.92,8.76c0,3.69,0.3,6.62,0.9,8.79
				c0.6,2.17,1.48,3.72,2.66,4.64c1.17,0.92,2.66,1.38,4.45,1.38C738.56,523.28,740.02,522.82,741.2,521.88z"/>
			<path class="st9" d="M807.9,522.65v13.51h-41.66v-8.84l16.43-18.08c2.2-2.42,3.74-4.44,4.62-6.04c0.89-1.61,1.33-3.12,1.33-4.51
				c0-1.87-0.71-3.25-2.13-4.14c-1.43-0.89-3.86-1.33-7.3-1.33c-2.34,0-4.75,0.22-7.21,0.66c-2.46,0.44-4.6,0.99-6.42,1.67v-13.36
				c1.85-0.6,4.23-1.11,7.15-1.53c2.92-0.42,5.61-0.64,8.05-0.64c8.39,0,14.57,1.37,18.56,4.12c3.99,2.75,5.99,6.99,5.99,12.73
				c0,2.9-0.62,5.71-1.87,8.46c-1.25,2.74-3.33,5.66-6.25,8.76l-8.24,8.57H807.9z"/>
			<path class="st9" d="M850.55,511.89c1.88,2.13,2.82,4.97,2.82,8.52c0,5.24-2.05,9.3-6.16,12.19c-4.11,2.88-10.38,4.32-18.81,4.32
				c-5.69,0-11.17-0.64-16.43-1.91v-12.09c2.37,0.57,4.93,1.04,7.69,1.4c2.76,0.36,5.39,0.54,7.88,0.54c3.54,0,6.1-0.46,7.67-1.38
				c1.57-0.92,2.36-2.3,2.36-4.12c0-1.22-0.31-2.22-0.92-2.99c-0.61-0.77-1.65-1.36-3.1-1.76c-1.46-0.4-3.44-0.6-5.93-0.6h-10.18
				v-12.2h8.84c3.32,0,5.65-0.4,7-1.19c1.35-0.8,2.02-1.97,2.02-3.52c0-1.65-0.69-2.9-2.08-3.74c-1.38-0.84-3.61-1.27-6.68-1.27
				c-2.22,0-4.56,0.2-7.02,0.6c-2.46,0.4-4.69,0.94-6.68,1.61v-12.13c1.95-0.62,4.36-1.14,7.24-1.53c2.88-0.4,5.61-0.6,8.18-0.6
				c7.73,0,13.54,1.34,17.4,4.02c3.87,2.68,5.8,6.55,5.8,11.59c0,2.92-0.79,5.43-2.38,7.54c-1.58,2.11-3.77,3.59-6.57,4.44
				C845.99,508.33,848.66,509.75,850.55,511.89z"/>
		</g>
	</g>
	<g>
		<g>
			<polygon class="st24" points="32.44,333.5 93.94,333.5 153.81,437.23 191.63,371.72 161.31,371.72 140.51,333.5 275.2,333.5 
				153.81,543.73 			"/>
		</g>
		<g>
			<polygon class="st10" points="121.5,397.26 78.5,397.26 46.31,341.5 89.31,341.5 			"/>
			<polygon class="st11" points="153.66,452.96 110.65,452.96 82.8,404.71 125.8,404.71 			"/>
			<polygon class="st12" points="114.96,460.41 153.97,460.41 192.69,460.41 153.82,527.73 			"/>
			<polygon class="st13" points="224.84,404.71 196.98,452.96 153.97,452.96 181.83,404.71 			"/>
			<polygon class="st9" points="261.34,341.5 229.14,397.26 186.14,397.26 218.33,341.5 			"/>
			<polygon class="st7" points="153.82,460.41 114.96,460.41 153.82,527.73 153.82,527.72 			"/>
			<polygon class="st8" points="121.5,397.26 78.5,397.26 89.31,341.5 			"/>
			<polygon class="st14" points="153.66,452.96 110.65,452.96 125.8,404.71 			"/>
			<polygon class="st15" points="153.66,460.41 133.81,493.36 153.66,527.72 			"/>
			<polygon class="st16" points="153.66,460.41 173.51,493.36 153.66,527.72 			"/>
			<polygon class="st17" points="153.97,452.96 196.98,452.96 181.83,404.71 			"/>
			<polygon class="st18" points="186.14,397.26 229.14,397.26 218.33,341.5 			"/>
			<polygon class="st18" points="218.34,341.51 205.5,363.73 166.07,363.73 153.97,341.51 			"/>
			<polygon class="st9" points="218.34,341.51 205.5,363.73 166.07,363.73 			"/>
		</g>
	</g>
</g>
</svg>
